<svg width="600" height="400" xmlns="http://www.w3.org/2000/svg">
  <style>
    .cube { animation: float 3s ease-in-out infinite alternate; }
    .cube1 { animation-delay: 0.2s; }
    .cube2 { animation-delay: 0.4s; }
    .cube3 { animation-delay: 0s; }
    
    @keyframes float {
      from { transform: translateY(0px); }
      to { transform: translateY(-15px); }
    }
    
    .line { stroke-dasharray: 1000; stroke-dashoffset: 1000; animation: dash 3s linear forwards; }
    @keyframes dash { to { stroke-dashoffset: 0; } }
  </style>
  
  <!-- Background pattern -->
  <defs>
    <pattern id="grid" width="20" height="20" patternUnits="userSpaceOnUse">
      <path d="M 20 0 L 0 0 0 20" fill="none" stroke="#f0f0ff" stroke-width="0.5"/>
    </pattern>
  </defs>
  <rect width="100%" height="100%" fill="#ffffff"/>
  <rect width="100%" height="100%" fill="url(#grid)"/>
  
  <!-- Blockchain illustration -->
  <g transform="translate(100, 90)">
    <!-- Cubes representing blocks -->
    <g class="cube cube1" transform="translate(0, 0)">
      <rect x="0" y="0" width="80" height="80" rx="5" fill="#e3f2fd" stroke="#0d6efd" stroke-width="2"/>
      <text x="40" y="45" font-family="Arial" font-size="12" text-anchor="middle" fill="#0d6efd">BLOCK 1</text>
    </g>
    
    <g class="cube cube2" transform="translate(150, 50)">
      <rect x="0" y="0" width="80" height="80" rx="5" fill="#e3f2fd" stroke="#0d6efd" stroke-width="2"/>
      <text x="40" y="45" font-family="Arial" font-size="12" text-anchor="middle" fill="#0d6efd">BLOCK 2</text>
    </g>
    
    <g class="cube cube3" transform="translate(300, 0)">
      <rect x="0" y="0" width="80" height="80" rx="5" fill="#e3f2fd" stroke="#0d6efd" stroke-width="2"/>
      <text x="40" y="45" font-family="Arial" font-size="12" text-anchor="middle" fill="#0d6efd">BLOCK 3</text>
    </g>
    
    <!-- Connection lines -->
    <path d="M 80 40 L 150 90" stroke="#0d6efd" stroke-width="2" class="line"/>
    <path d="M 230 90 L 300 40" stroke="#0d6efd" stroke-width="2" class="line"/>
    
    <!-- Data points -->
    <circle cx="115" cy="65" r="5" fill="#198754"/>
    <circle cx="265" cy="65" r="5" fill="#198754"/>
  </g>
  
  <!-- QR code representation -->
  <g transform="translate(150, 220)">
    <rect x="0" y="0" width="100" height="100" fill="#ffffff" stroke="#212529" stroke-width="2"/>
    <g fill="#212529">
      <rect x="10" y="10" width="20" height="20"/>
      <rect x="70" y="10" width="20" height="20"/>
      <rect x="10" y="70" width="20" height="20"/>
      <rect x="40" y="40" width="20" height="20"/>
      <rect x="40" y="10" width="10" height="10"/>
      <rect x="10" y="40" width="10" height="10"/>
      <rect x="80" y="40" width="10" height="10"/>
      <rect x="40" y="70" width="10" height="10"/>
    </g>
  </g>
  
  <!-- Path lines -->
  <g transform="translate(300, 270)">
    <path d="M 0,0 C 30,-30 60,30 90,0 C 120,-30 150,30 180,0" fill="none" stroke="#0dcaf0" stroke-width="3" class="line"/>
  </g>
</svg>
